<?xml version="1.0" standalone="no"?>
<!DOCTYPE svg PUBLIC "-//W3C//DTD SVG 20010904//EN"
 "http://www.w3.org/TR/2001/REC-SVG-20010904/DTD/svg10.dtd">
<svg version="1.0" xmlns="http://www.w3.org/2000/svg"
 width="1363.000000pt" height="1440.000000pt" viewBox="0 0 1363.000000 1440.000000"
 preserveAspectRatio="xMidYMid meet">
<metadata>
Created by potrace 1.16, written by Peter Selinger 2001-2019
</metadata>
<g transform="translate(0.000000,1440.000000) scale(0.100000,-0.100000)"
fill="#000000" stroke="none">
<path d="M1664 14386 c-38 -17 -52 -50 -98 -229 -23 -88 -39 -133 -49 -135 -8
-2 -33 19 -55 45 -30 34 -44 45 -52 37 -6 -6 -18 -71 -26 -145 -18 -154 -13
-365 11 -529 4 -25 9 -57 10 -72 2 -14 11 -61 20 -104 55 -266 140 -499 249
-682 33 -57 69 -118 78 -137 10 -18 44 -54 77 -79 50 -39 61 -53 66 -84 3 -20
15 -57 27 -82 11 -25 28 -76 38 -113 15 -61 15 -76 4 -125 -25 -105 -21 -125
41 -192 30 -33 55 -65 55 -71 0 -27 121 -176 254 -313 43 -45 98 -111 121
-148 24 -36 60 -79 81 -95 20 -15 56 -44 79 -63 23 -19 66 -53 94 -75 29 -22
59 -53 67 -68 8 -15 41 -44 72 -64 31 -20 70 -51 86 -70 15 -19 49 -48 75 -66
47 -33 132 -119 190 -195 18 -23 58 -57 89 -75 43 -25 68 -49 99 -98 24 -35
43 -69 43 -75 0 -6 -17 -29 -37 -50 -21 -22 -58 -64 -83 -94 -25 -30 -62 -72
-82 -95 -20 -22 -45 -50 -55 -61 -25 -29 -105 -123 -183 -213 -36 -42 -88
-105 -115 -140 -28 -35 -59 -74 -71 -85 -11 -12 -38 -45 -58 -74 -21 -30 -48
-66 -61 -80 -13 -15 -34 -43 -47 -62 -49 -72 -102 -146 -128 -180 -15 -19 -38
-54 -51 -76 -78 -135 -94 -162 -114 -189 -12 -16 -35 -59 -50 -95 -16 -36 -39
-82 -52 -102 -13 -21 -29 -54 -37 -75 -54 -150 -65 -184 -79 -233 -23 -79 -37
-145 -48 -220 -5 -36 -14 -92 -20 -125 -18 -105 -28 -644 -20 -1135 l7 -475
-35 -32 c-19 -17 -69 -50 -110 -74 -42 -23 -94 -57 -116 -75 -22 -17 -74 -53
-115 -80 -144 -92 -226 -158 -336 -270 -101 -104 -113 -114 -140 -109 -26 5
-40 -4 -135 -97 -58 -57 -125 -130 -149 -164 -23 -33 -60 -70 -81 -82 -22 -13
-39 -27 -39 -33 0 -5 -11 -14 -25 -19 -14 -5 -25 -16 -25 -25 0 -8 -7 -15 -15
-15 -9 0 -23 -15 -32 -34 -9 -19 -23 -36 -32 -39 -9 -2 -23 -23 -31 -46 -9
-28 -22 -46 -37 -52 -13 -5 -23 -16 -23 -24 0 -9 -13 -28 -28 -43 -16 -15 -36
-48 -46 -73 -9 -26 -25 -49 -34 -51 -11 -3 -31 -42 -56 -109 -21 -57 -47 -118
-57 -135 -10 -16 -25 -70 -34 -118 -11 -65 -26 -108 -55 -161 -28 -50 -40 -85
-40 -112 0 -21 -5 -44 -10 -49 -6 -6 -17 -136 -25 -295 -12 -247 -12 -286 1
-300 8 -9 14 -36 14 -62 0 -25 4 -49 10 -52 5 -3 10 -21 10 -40 0 -19 5 -37
10 -40 6 -3 10 -21 10 -40 0 -18 7 -40 15 -49 8 -8 15 -30 15 -50 0 -19 5 -38
10 -41 6 -3 10 -14 10 -24 0 -10 6 -24 14 -30 7 -6 11 -22 9 -35 -3 -15 5 -39
22 -64 19 -29 30 -62 36 -109 12 -102 36 -188 64 -233 14 -22 25 -46 25 -54 0
-8 5 -18 10 -21 6 -3 10 -14 10 -24 0 -10 8 -33 17 -52 14 -27 17 -57 16 -142
-3 -168 -23 -378 -40 -410 -8 -16 -12 -35 -9 -42 3 -8 -2 -19 -10 -25 -7 -7
-20 -34 -28 -60 -8 -26 -26 -59 -40 -73 -14 -14 -26 -33 -26 -41 0 -8 -9 -17
-19 -21 -11 -3 -23 -15 -26 -26 -4 -10 -13 -19 -21 -19 -8 0 -14 -4 -14 -8 0
-12 -66 -82 -77 -82 -14 0 -103 -84 -103 -98 0 -6 -11 -21 -24 -34 -13 -13
-29 -41 -37 -63 -17 -54 -18 -154 -2 -187 7 -15 13 -36 13 -48 0 -32 49 -121
89 -161 20 -20 51 -41 70 -47 19 -7 40 -21 47 -31 17 -23 59 -35 81 -22 11 6
30 4 56 -5 27 -9 44 -11 57 -4 10 6 25 8 33 5 7 -3 54 15 103 41 76 40 107 66
217 175 70 71 127 135 127 143 0 7 11 21 25 30 14 9 25 22 25 30 0 7 13 27 29
43 16 17 32 44 36 61 3 16 14 32 23 34 11 3 24 27 35 61 10 31 26 61 36 67 21
11 51 89 51 132 0 28 66 234 81 253 4 6 15 33 24 59 14 41 15 59 6 106 -9 46
-9 64 4 100 12 35 13 54 4 103 -6 33 -8 70 -5 82 3 12 -1 37 -10 55 -10 18
-17 60 -18 98 -1 48 -8 81 -24 114 -13 27 -22 54 -19 60 2 7 -4 30 -15 51 -10
21 -16 42 -13 46 2 5 -20 59 -50 119 -30 61 -55 116 -55 122 0 7 -11 44 -24
83 -13 40 -34 115 -46 167 -12 52 -30 112 -41 132 -10 20 -16 44 -13 52 3 9
-1 27 -10 41 -9 13 -16 38 -16 54 0 16 -5 33 -11 37 -19 12 -4 284 21 374 46
171 64 226 78 242 8 10 16 30 18 45 6 50 33 115 57 133 12 10 30 41 41 69 10
29 24 51 32 51 8 0 23 19 33 43 13 28 30 48 54 61 24 13 45 36 67 77 33 62
140 167 198 195 18 8 37 26 42 39 5 13 21 31 35 41 14 9 25 23 25 31 0 15 16
34 110 129 27 29 50 57 50 64 0 6 14 23 30 37 16 13 30 30 30 37 0 7 23 32 50
55 28 23 50 48 50 56 0 7 12 23 27 35 14 11 31 30 37 42 6 12 16 23 22 25 15
5 25 -227 13 -315 -5 -37 -14 -114 -20 -172 -6 -58 -24 -150 -40 -205 -16 -55
-36 -123 -44 -151 -8 -28 -15 -59 -15 -70 0 -18 -5 -35 -44 -162 -10 -29 -21
-85 -26 -125 -12 -99 -60 -366 -81 -457 -6 -25 -14 -79 -19 -120 -5 -41 -13
-100 -19 -130 -5 -30 -17 -91 -25 -135 -13 -68 -15 -263 -15 -1340 0 -693 4
-1294 9 -1335 13 -112 39 -252 51 -277 6 -11 8 -26 5 -32 -4 -6 -2 -11 3 -11
6 0 11 -7 11 -16 0 -18 19 -64 62 -148 68 -134 133 -214 226 -278 26 -18 50
-37 53 -41 3 -5 8 -8 10 -6 2 1 23 -8 45 -19 23 -12 44 -19 47 -16 3 3 18 -1
34 -10 70 -39 424 -71 517 -47 23 6 57 13 76 15 19 3 56 12 82 19 26 8 49 12
52 9 4 -3 6 0 6 6 0 7 5 12 12 12 6 0 40 14 75 30 34 17 68 30 73 30 6 0 10 4
10 8 0 5 12 15 28 23 30 16 34 18 78 54 18 14 34 25 37 25 5 0 31 22 99 87 18
17 51 54 73 82 22 28 43 51 46 51 5 0 54 -69 84 -119 6 -9 14 -19 18 -22 4 -3
49 -47 100 -96 54 -54 112 -100 140 -113 26 -12 47 -26 47 -30 0 -7 39 -25 75
-36 6 -1 44 -15 85 -29 134 -48 332 -72 473 -56 112 12 229 36 280 56 20 8 37
13 37 11 0 -3 27 6 59 19 33 13 62 20 65 17 3 -3 6 0 6 6 0 7 4 12 9 12 5 0
20 4 33 9 13 5 27 9 32 9 5 0 12 4 15 9 8 11 144 78 154 75 4 -1 7 3 7 8 0 6
7 10 15 10 11 0 15 -20 17 -97 l3 -98 265 -2 265 -2 -3 832 c-3 810 3 996 29
1005 5 2 7 8 3 13 -3 5 6 30 20 55 14 26 26 51 26 56 0 22 136 178 155 178 2
0 17 13 34 29 16 15 45 34 63 41 18 7 40 19 48 25 22 18 148 57 160 50 5 -3
10 -2 10 3 0 11 -5 10 156 18 224 11 329 -20 440 -131 36 -36 62 -70 59 -75
-3 -6 -2 -10 3 -10 15 0 55 -96 84 -205 7 -26 13 -354 17 -960 l6 -920 265 0
265 0 5 900 c3 495 9 906 13 913 5 7 10 24 13 37 6 36 75 166 91 172 7 3 13
10 13 15 0 14 101 118 116 118 6 0 14 6 17 13 2 7 22 21 43 32 22 11 46 25 54
31 25 18 131 54 141 48 5 -3 9 -1 9 4 0 21 260 37 367 22 106 -14 190 -56 265
-132 32 -32 56 -63 53 -69 -4 -5 -2 -9 3 -9 10 0 36 -58 33 -72 0 -5 3 -8 8
-8 5 0 13 -15 16 -33 4 -17 11 -36 15 -42 18 -24 22 -107 30 -565 7 -480 19
-645 50 -720 6 -15 12 -37 14 -51 1 -13 6 -33 10 -44 17 -45 19 -50 18 -57 -1
-5 2 -8 7 -8 5 0 12 -11 15 -25 3 -13 17 -41 31 -61 14 -20 25 -43 25 -50 0
-7 3 -14 8 -16 4 -1 23 -23 41 -48 55 -72 215 -220 238 -220 4 0 25 -11 46
-25 39 -27 173 -75 207 -75 11 0 20 -4 20 -8 0 -11 -2 -11 180 -18 189 -7 329
12 437 62 17 7 33 14 36 14 3 0 18 5 34 11 15 6 30 10 32 9 2 -1 7 2 10 7 3 5
24 20 46 33 60 36 196 143 239 188 73 77 86 92 86 97 -1 8 37 55 44 55 3 0 6
-97 6 -215 l0 -215 265 0 265 0 0 778 c0 428 3 782 7 786 4 3 8 14 9 24 1 9 5
43 9 75 3 31 11 57 16 57 6 0 8 4 5 9 -14 23 117 251 145 251 5 0 9 6 9 13 0
14 139 123 152 120 4 -2 8 1 8 6 0 17 155 85 171 76 4 -3 9 -1 11 3 1 5 18 12
35 15 l33 6 2 -1107 3 -1107 263 -3 c205 -2 264 0 267 10 3 7 6 383 7 835 2
612 6 825 15 834 6 6 9 17 6 25 -2 7 2 26 9 41 8 15 29 57 46 93 36 75 127
180 213 246 32 25 59 42 59 39 0 -4 13 3 29 14 15 11 31 18 35 14 3 -3 6 0 6
7 0 7 3 11 6 7 3 -3 21 3 39 13 48 27 133 40 254 40 114 -1 171 -10 231 -39
l37 -18 11 31 c13 39 26 99 24 109 -1 4 2 7 7 7 5 0 7 9 4 20 -3 11 -1 26 5
33 5 6 15 45 22 85 7 39 17 72 22 72 4 0 7 3 6 8 -1 4 2 27 6 52 5 25 8 48 7
53 0 4 3 7 8 7 4 0 6 11 4 24 -3 13 0 27 6 30 6 4 11 17 11 30 0 18 -10 25
-52 38 -29 10 -66 20 -83 23 -48 10 -267 6 -310 -6 -22 -6 -50 -12 -62 -13
-13 0 -23 -5 -23 -10 0 -4 -7 -6 -15 -2 -8 3 -15 2 -15 -2 0 -4 -21 -16 -48
-26 -26 -11 -75 -37 -110 -58 -34 -21 -65 -38 -68 -38 -3 0 -22 -15 -41 -32
-107 -98 -174 -172 -221 -243 -29 -44 -56 -85 -61 -90 -4 -6 -11 -17 -14 -25
-3 -8 -6 98 -6 235 -1 138 -5 255 -9 261 -8 12 -83 42 -122 48 -14 3 -27 5
-30 6 -3 1 -64 1 -135 1 -102 0 -145 -5 -195 -20 -35 -11 -67 -18 -72 -15 -4
3 -8 1 -8 -4 0 -9 -40 -24 -56 -21 -4 0 -10 -3 -13 -8 -3 -4 -26 -19 -51 -32
-25 -13 -60 -35 -77 -48 -18 -13 -33 -22 -33 -19 0 2 -14 -8 -32 -22 -80 -67
-134 -121 -169 -168 -20 -28 -43 -57 -51 -65 -7 -8 -22 -31 -33 -51 -11 -21
-23 -38 -27 -38 -5 0 -7 -3 -6 -7 3 -15 -14 -43 -23 -37 -5 3 -9 117 -9 255
l0 249 -265 0 -265 0 -1 -855 c-1 -470 -3 -859 -4 -865 -1 -5 -4 -13 -5 -17
-1 -5 -1 -18 -1 -29 2 -19 -17 -93 -37 -144 -3 -8 -6 -17 -6 -20 -5 -21 -51
-103 -71 -124 -14 -15 -25 -30 -25 -34 0 -23 -169 -155 -210 -164 -8 -2 -17
-5 -20 -8 -23 -25 -138 -53 -260 -65 -74 -7 -253 11 -258 25 -2 6 -8 7 -14 4
-12 -7 -128 45 -128 58 0 4 -7 8 -15 8 -21 0 -135 118 -147 151 -5 16 -14 29
-20 29 -5 0 -7 4 -3 9 3 5 1 12 -5 16 -14 8 -53 85 -43 85 4 0 2 5 -5 12 -7 7
-12 21 -12 33 0 12 -5 26 -10 31 -6 6 -13 27 -15 48 -3 21 -8 43 -13 50 -4 6
-10 216 -14 466 -7 393 -12 565 -18 565 -3 0 -31 139 -33 163 -1 12 -5 22 -9
22 -4 0 -10 20 -14 45 -3 25 -10 45 -14 45 -4 0 -11 12 -15 27 -7 30 -56 132
-83 174 -89 139 -208 234 -357 284 -27 9 -57 19 -65 22 -8 4 -23 5 -32 4 -10
-1 -18 2 -18 7 0 6 -9 8 -19 5 -11 -3 -36 1 -57 7 -55 19 -324 16 -397 -4 -33
-8 -62 -15 -65 -14 -4 1 -14 -1 -22 -5 -8 -3 -37 -13 -65 -23 -135 -46 -305
-157 -422 -275 -46 -46 -83 -87 -83 -91 0 -12 -124 -143 -136 -143 -5 0 -19
23 -30 52 -12 29 -19 53 -15 53 3 0 1 4 -4 8 -6 4 -29 39 -52 77 -43 73 -139
177 -185 201 -16 8 -28 19 -28 25 0 6 -4 8 -9 5 -5 -3 -14 1 -21 9 -7 8 -20
15 -29 15 -9 0 -29 9 -46 20 -16 11 -40 20 -52 20 -13 0 -23 4 -23 9 0 5 -9 7
-20 4 -11 -3 -20 0 -20 6 0 5 -7 8 -15 5 -9 -4 -28 -2 -43 4 -44 17 -98 22
-252 21 -161 0 -229 -6 -247 -21 -7 -6 -20 -8 -28 -4 -8 3 -15 2 -15 -2 0 -4
-21 -14 -47 -20 -43 -12 -211 -89 -223 -103 -3 -3 -30 -22 -60 -42 -30 -19
-65 -45 -77 -56 -12 -12 -24 -21 -27 -21 -3 0 -27 -23 -53 -52 -26 -29 -57
-62 -68 -73 -11 -12 -28 -33 -38 -48 -10 -15 -22 -25 -28 -22 -6 4 -9 368 -8
1019 1 996 1 1014 -19 1059 -11 25 -38 72 -60 104 -21 32 -67 108 -102 168
-34 61 -88 146 -120 190 -42 58 -64 101 -80 155 -12 41 -35 99 -52 129 -37 67
-35 90 24 215 67 145 126 246 258 449 86 131 114 137 214 46 51 -47 186 -209
186 -224 0 -4 15 -25 33 -48 18 -23 41 -58 51 -77 11 -19 31 -51 46 -70 68
-88 80 -144 59 -270 -5 -30 -13 -91 -19 -135 -5 -44 -15 -100 -21 -124 -12
-53 -75 -190 -115 -253 -35 -54 -94 -174 -94 -191 0 -25 45 -57 79 -57 44 0
119 77 143 146 27 79 72 141 114 159 47 19 65 19 110 -2 58 -28 84 -96 84
-218 0 -62 -5 -108 -14 -128 -8 -18 -19 -49 -26 -69 -13 -43 -91 -134 -123
-144 -18 -6 -121 -66 -137 -81 -2 -2 -5 -32 -6 -65 -2 -47 -7 -65 -21 -75 -34
-24 -43 -34 -49 -58 -8 -33 3 -74 22 -82 22 -8 270 35 319 55 22 10 62 34 89
54 28 21 53 39 56 40 22 11 104 165 115 218 4 19 11 40 15 45 4 6 11 30 15 55
4 25 13 64 21 88 20 60 20 503 0 599 -8 37 -17 97 -21 133 -4 36 -11 81 -15
100 -5 19 -14 69 -20 110 -11 79 -23 149 -60 340 -12 63 -28 151 -35 195 -13
76 -25 126 -47 205 -5 19 -16 67 -23 105 -18 88 -50 230 -70 315 -9 36 -22 92
-30 125 -14 61 -24 102 -50 190 -26 90 -55 220 -55 247 0 15 -6 39 -14 55 -18
34 -56 170 -56 199 0 11 -4 24 -9 30 -5 5 -14 29 -19 54 -6 25 -24 97 -41 160
-17 63 -31 124 -31 135 0 12 -5 26 -11 32 -8 8 -8 21 -1 45 16 49 32 348 32
589 0 376 -20 643 -62 834 -6 28 -17 82 -24 120 -7 39 -18 95 -24 125 -17 84
-78 278 -109 345 -16 33 -38 85 -51 115 -27 68 -20 55 -108 185 -72 107 -72
108 -66 159 4 31 24 85 50 135 24 47 44 90 44 97 0 7 16 53 36 101 20 48 42
107 49 131 7 24 31 66 53 95 47 63 145 206 155 227 4 8 16 29 27 45 11 17 24
39 30 50 6 11 21 38 35 60 69 110 193 383 237 520 9 29 34 162 44 235 7 56 12
65 45 84 36 21 225 208 266 263 15 21 40 52 55 68 16 17 28 36 28 43 0 7 6 15
14 18 8 3 17 13 20 22 3 9 23 44 45 77 56 85 162 301 209 425 48 127 120 386
128 461 3 30 8 57 10 60 13 22 25 342 12 354 -3 4 -24 -5 -47 -19 -64 -41 -60
-45 -82 94 -15 97 -44 194 -75 248 -28 47 -12 46 -164 11 -47 -11 -92 -22
-100 -24 -229 -52 -629 -232 -815 -367 -24 -17 -151 -122 -160 -132 -6 -6 -22
-21 -37 -34 -22 -20 -27 -21 -40 -8 -8 8 -41 31 -73 53 -32 21 -72 47 -89 59
-62 42 -219 123 -331 171 -102 44 -363 119 -480 138 -166 27 -219 30 -460 29
-258 0 -308 -6 -552 -65 -146 -35 -269 -80 -417 -154 -61 -30 -114 -51 -121
-47 -7 4 -45 36 -85 72 -190 170 -231 198 -415 289 -223 110 -536 221 -622
221 -15 0 -43 4 -62 10 -41 11 -190 27 -331 34 -78 4 -113 2 -136 -8z m286
-230 c177 -25 443 -114 646 -217 140 -71 205 -113 314 -203 181 -149 296 -295
407 -513 37 -73 71 -133 75 -133 4 0 31 15 60 34 161 103 377 190 573 232 11
3 70 7 130 10 109 6 281 -13 323 -35 9 -5 40 -19 67 -31 65 -29 173 -101 228
-154 25 -22 72 -76 106 -118 34 -43 64 -78 65 -78 2 0 30 26 62 59 126 124
316 194 479 175 50 -5 175 -41 247 -69 12 -5 20 -1 25 11 16 43 156 217 258
321 99 101 313 273 338 273 6 0 18 6 26 14 80 70 613 282 650 259 8 -5 19 -23
23 -39 15 -54 39 -278 43 -409 2 -71 4 -131 4 -133 1 -5 76 52 79 61 7 14 32
7 32 -10 0 -26 -54 -217 -84 -298 -30 -81 -34 -91 -70 -165 -14 -30 -26 -60
-26 -66 0 -7 -6 -17 -14 -23 -8 -7 -17 -24 -21 -38 -7 -29 -124 -232 -188
-326 -93 -139 -276 -342 -381 -423 -35 -28 -40 -37 -47 -90 -31 -237 -80 -442
-134 -559 -7 -17 -18 -41 -24 -55 -6 -14 -15 -32 -21 -40 -5 -8 -46 -76 -91
-150 -45 -74 -101 -163 -125 -198 -24 -35 -44 -66 -44 -71 0 -4 -12 -18 -26
-32 -14 -13 -48 -62 -76 -108 -27 -46 -56 -91 -65 -99 -9 -9 -22 -31 -29 -49
-8 -18 -26 -47 -42 -65 -35 -41 -113 -145 -127 -168 -5 -9 -22 -36 -37 -58
-16 -23 -28 -48 -28 -56 0 -7 -7 -19 -15 -26 -8 -7 -15 -17 -15 -23 0 -5 -16
-27 -35 -48 -19 -22 -35 -44 -35 -49 0 -6 27 -43 59 -83 33 -39 63 -85 66
-102 8 -37 33 -110 51 -152 8 -17 14 -38 14 -46 0 -9 7 -28 15 -44 20 -38 85
-210 85 -224 0 -7 14 -34 30 -61 17 -26 30 -52 30 -56 0 -10 100 -206 137
-267 17 -28 39 -82 51 -120 31 -106 56 -348 49 -480 -18 -315 -29 -455 -38
-505 -6 -30 -17 -93 -24 -140 -8 -47 -18 -110 -25 -140 -50 -249 -79 -470 -79
-620 -1 -106 4 -119 74 -187 22 -21 45 -50 51 -63 6 -14 21 -45 32 -70 20 -44
39 -102 67 -205 7 -27 21 -75 29 -105 9 -30 21 -75 26 -100 35 -170 40 -185
84 -285 37 -83 46 -110 61 -184 13 -61 16 -123 13 -258 -2 -98 -6 -183 -11
-190 -14 -21 -46 -2 -58 36 -6 20 -27 70 -46 111 -20 41 -39 84 -44 95 -4 11
-24 55 -43 97 -20 42 -38 89 -42 103 -3 14 -10 27 -15 30 -4 3 -24 40 -44 83
-21 42 -43 88 -49 102 -19 38 -92 172 -124 227 -15 26 -31 56 -35 66 -22 58
-128 177 -157 177 -46 0 -127 -111 -214 -295 -27 -55 -65 -136 -86 -180 -21
-44 -49 -107 -62 -140 -12 -33 -35 -85 -50 -115 -16 -30 -28 -59 -28 -65 0 -5
-16 -41 -35 -80 -19 -38 -35 -75 -35 -81 0 -16 -104 -250 -139 -315 -110 -200
-104 -184 -96 -257 8 -78 21 -113 73 -196 21 -34 51 -87 66 -120 16 -32 49
-86 75 -120 47 -61 125 -184 154 -241 8 -17 20 -57 26 -90 13 -75 24 -1634 12
-1654 -7 -11 -22 -3 -68 36 -193 164 -414 243 -683 245 -113 1 -133 -1 -205
-27 -90 -31 -274 -123 -356 -178 -129 -86 -301 -263 -407 -421 -65 -95 -152
-260 -167 -316 -3 -14 -10 -34 -16 -45 -16 -35 -41 -147 -55 -250 -8 -55 -19
-125 -24 -156 -13 -71 -13 -283 0 -346 5 -26 15 -90 21 -141 7 -51 16 -95 20
-98 5 -3 9 -14 9 -25 0 -12 12 -55 26 -96 l26 -75 -48 -49 c-130 -132 -319
-199 -557 -199 -175 0 -278 32 -374 114 -83 72 -153 226 -173 379 -11 86 -14
2517 -2 2517 4 0 8 46 8 103 1 151 12 292 31 379 15 73 15 84 -2 172 -26 140
-8 222 77 341 20 28 45 69 57 92 29 59 77 110 125 136 34 18 57 22 136 22 80
0 102 -4 140 -24 55 -28 295 -272 382 -387 48 -64 69 -84 87 -84 24 0 24 0 18
83 -8 98 -63 314 -97 377 -14 25 -36 71 -51 103 -14 32 -31 63 -37 69 -7 7
-12 16 -12 21 0 4 -29 57 -64 117 -35 60 -68 119 -72 132 -4 13 -18 37 -31 54
-21 28 -95 147 -134 214 -8 14 -16 27 -19 30 -16 16 -50 71 -50 81 0 6 -6 25
-14 42 -8 18 -21 55 -30 82 -9 28 -26 79 -37 115 -12 36 -34 104 -50 151 -27
80 -42 129 -74 254 -7 28 -23 75 -35 105 -12 30 -28 79 -36 108 -16 59 -33
123 -64 232 -11 41 -27 104 -36 140 -8 36 -22 92 -30 125 -31 124 -36 162 -31
245 5 86 9 100 55 223 36 96 67 90 63 -13 -5 -128 48 -436 110 -635 10 -33 26
-87 34 -120 19 -71 82 -275 100 -325 7 -19 22 -57 32 -85 11 -27 28 -77 38
-110 10 -33 33 -96 50 -140 18 -44 54 -136 80 -205 81 -213 145 -344 250 -505
18 -27 46 -73 61 -101 83 -148 151 -272 161 -294 6 -14 27 -59 46 -100 20 -41
39 -88 43 -105 4 -16 11 -35 15 -41 16 -20 22 -128 11 -199 -13 -85 0 -167 47
-297 17 -49 31 -97 31 -107 0 -11 4 -22 9 -26 5 -3 13 -20 16 -38 17 -76 49
-158 77 -191 26 -32 35 -36 78 -36 30 0 52 5 60 15 7 8 18 15 25 15 7 0 18 7
25 15 22 26 89 19 140 -15 58 -38 95 -38 162 1 29 17 68 33 88 36 59 9 106 39
124 78 15 31 16 43 6 86 -11 46 -16 52 -59 71 -25 12 -57 26 -70 32 -41 19
-111 87 -134 130 -18 34 -22 57 -22 141 0 83 4 106 21 135 11 19 28 36 38 38
11 2 48 -28 104 -83 48 -48 102 -94 121 -102 32 -14 36 -13 48 3 19 27 8 63
-48 161 -27 46 -49 87 -49 90 0 3 -8 15 -17 28 -10 12 -25 33 -33 45 -53 78
-135 176 -171 202 -185 134 -366 429 -389 635 -20 176 -32 274 -45 378 -8 61
-17 137 -20 170 -13 156 -44 376 -71 513 -8 39 -20 105 -28 145 -7 39 -19 88
-25 107 -7 19 -21 64 -32 100 -12 36 -25 74 -29 85 -13 31 -59 127 -75 155
-26 46 -72 154 -95 223 -19 56 -22 81 -18 150 5 72 12 94 54 183 27 55 54 113
61 130 6 16 20 52 31 79 17 44 62 199 93 320 6 22 14 44 20 50 5 5 9 19 9 32
0 12 6 42 14 65 26 82 54 183 75 278 24 101 45 180 67 245 8 23 14 50 14 62 0
12 6 42 13 65 8 24 24 86 36 138 12 52 29 121 37 152 7 32 14 66 14 75 0 10 9
50 21 88 33 112 47 166 59 235 18 101 37 196 61 300 12 52 22 113 23 134 1 35
-2 40 -28 47 -34 9 -80 50 -66 59 5 3 -17 21 -49 41 -73 42 -248 194 -267 230
-15 29 -65 72 -130 110 -22 13 -62 51 -89 84 -74 93 -125 143 -181 180 -28 18
-61 47 -73 63 -12 17 -38 41 -59 53 -20 12 -62 48 -92 79 -51 52 -85 80 -213
176 -26 20 -67 66 -91 103 -24 36 -77 101 -119 145 -134 139 -210 230 -230
275 -10 24 -38 64 -61 89 -41 44 -41 45 -47 141 -5 73 -14 116 -39 180 -30 78
-132 243 -206 336 -64 80 -156 285 -213 475 -21 68 -66 283 -76 360 -3 25 -8
56 -10 70 -2 14 -6 50 -9 80 -3 30 -8 88 -11 128 -8 86 -2 90 66 32 26 -22 50
-37 52 -33 4 7 8 34 23 173 9 88 64 325 82 354 4 7 77 4 162 -8z m74 -7952 c3
-64 9 -189 13 -278 l6 -162 -38 -23 c-35 -21 -39 -21 -56 -5 -11 9 -19 27 -19
39 0 13 -7 28 -15 35 -8 7 -15 21 -15 31 0 10 -4 21 -10 24 -5 3 -10 24 -10
45 0 21 -5 42 -10 45 -6 4 -10 29 -9 55 2 27 -3 55 -9 63 -7 8 -9 34 -6 68 9
91 10 93 66 121 29 15 62 34 73 42 11 9 23 16 26 16 3 0 9 -52 13 -116z m-864
-559 c0 -12 7 -28 15 -35 9 -8 13 -21 9 -36 -4 -17 1 -34 20 -58 14 -19 26
-43 26 -54 0 -10 11 -29 25 -42 14 -13 25 -32 25 -43 0 -11 23 -45 50 -77 28
-32 50 -65 50 -75 0 -9 16 -35 35 -58 l35 -41 -76 -69 c-42 -39 -89 -94 -106
-125 l-31 -54 -19 51 c-22 57 -67 107 -114 127 -32 14 -74 71 -74 103 0 23
-49 121 -61 121 -5 0 -18 18 -29 40 -11 22 -25 40 -31 40 -5 0 -13 10 -18 22
-7 18 2 36 48 98 79 106 191 213 208 198 7 -6 13 -21 13 -33z m-558 -1060
c149 -56 211 -84 222 -100 9 -13 34 -27 63 -35 26 -7 51 -15 54 -16 4 -2 -4
-39 -17 -81 -13 -43 -32 -108 -41 -145 -16 -68 -16 -68 -51 -68 -20 0 -43 7
-53 16 -10 9 -37 18 -61 21 -24 3 -47 12 -51 19 -5 9 -28 14 -64 14 -36 0 -62
5 -73 15 -9 8 -44 18 -78 21 -37 4 -63 12 -66 20 -4 9 -22 14 -55 14 -48 0
-50 1 -61 35 -13 39 -7 64 27 116 31 46 63 135 63 174 0 47 11 77 24 67 6 -5
104 -44 218 -87z m348 -1140 c7 -33 25 -97 40 -143 l28 -83 -30 -29 c-16 -17
-35 -30 -43 -30 -7 0 -19 -10 -27 -23 -9 -12 -36 -33 -62 -46 -26 -13 -50 -30
-53 -37 -3 -8 -23 -24 -44 -35 -22 -11 -39 -25 -39 -32 0 -7 -17 -20 -39 -29
-21 -9 -55 -33 -76 -52 -21 -20 -43 -36 -50 -36 -7 0 -20 -12 -30 -26 l-16
-26 -30 47 c-34 53 -57 136 -69 244 -9 79 -1 101 38 101 10 0 29 11 42 25 13
14 31 25 40 25 19 0 60 32 60 47 0 6 7 16 15 23 8 7 12 16 9 21 -3 5 12 9 34
9 26 0 45 7 57 20 10 11 25 20 34 20 9 0 38 18 65 40 26 22 53 40 60 40 6 0
22 9 36 20 14 10 28 16 31 12 3 -4 12 -34 19 -67z m3529 -865 c9 -4 36 -14 61
-21 25 -7 70 -28 100 -45 60 -35 247 -216 270 -261 8 -15 22 -39 32 -53 36
-52 58 -192 38 -241 -7 -16 -15 -29 -19 -29 -3 0 -12 -13 -19 -30 -18 -39
-169 -193 -182 -185 -5 3 -10 2 -10 -3 0 -9 -148 -81 -181 -87 -10 -2 -39 -13
-64 -24 -25 -11 -45 -18 -45 -15 0 2 -22 -7 -50 -21 -27 -14 -50 -22 -50 -19
0 4 -6 2 -12 -4 -7 -5 -51 -29 -98 -53 -47 -23 -108 -58 -137 -76 -29 -18 -54
-33 -57 -33 -3 0 -20 -13 -38 -30 -18 -16 -37 -30 -42 -30 -5 0 -20 -10 -33
-22 -30 -28 -43 -15 -48 48 -2 27 -7 63 -10 79 -11 60 -7 423 5 445 7 12 10
33 7 46 -8 45 41 237 98 379 71 178 150 261 280 296 34 9 180 1 204 -11z
m-3381 -301 c7 -10 37 -26 67 -35 61 -20 61 -18 25 -104 -28 -69 -58 -150 -71
-197 -7 -24 -17 -43 -23 -43 -33 0 -94 25 -111 45 -15 18 -78 42 -243 95 -209
67 -222 72 -217 93 3 12 10 72 16 132 6 61 13 131 16 156 l5 46 261 -85 c170
-55 266 -91 275 -103z m4162 -1199 l0 -540 -39 -20 c-60 -30 -198 -79 -244
-85 -23 -4 -50 -12 -62 -18 -28 -16 -308 -15 -362 1 -24 6 -62 17 -85 23 -24
7 -56 17 -73 24 -16 7 -40 16 -52 20 -13 3 -23 10 -23 15 0 4 -11 11 -25 14
-14 4 -25 11 -25 17 0 6 -5 7 -10 4 -6 -3 -13 1 -16 9 -3 9 -11 16 -17 16 -28
0 -95 73 -126 136 -19 38 -34 75 -34 82 0 6 -4 12 -9 12 -4 0 -8 8 -8 18 0 10
-5 23 -11 29 -13 13 -59 122 -59 139 0 6 27 34 60 63 33 29 60 49 60 44 0 -4
4 -3 8 2 20 27 127 97 212 138 127 60 166 77 180 77 7 0 24 6 38 14 15 8 65
27 112 42 47 15 101 33 120 40 19 7 80 29 135 49 101 36 267 115 296 141 8 8
21 14 27 14 7 0 12 5 12 10 0 6 5 10 10 10 7 0 10 -187 10 -540z"/>
<path d="M1877 13893 c-94 -353 -58 -712 107 -1043 129 -259 346 -489 569
-600 56 -28 59 -26 103 60 59 117 219 349 311 453 18 20 33 41 33 46 0 5 -21
17 -47 27 -94 36 -167 96 -234 195 -48 72 -54 86 -89 229 -44 178 -107 322
-177 408 -10 12 -27 34 -38 47 -82 104 -326 242 -476 270 l-36 7 -26 -99z"/>
<path d="M6790 13677 c-49 -29 -188 -145 -230 -191 -19 -22 -40 -44 -45 -50
-6 -6 -22 -27 -35 -46 -13 -19 -27 -37 -30 -40 -3 -3 -23 -30 -45 -60 -49 -67
-90 -113 -178 -199 -66 -63 -191 -155 -229 -167 -25 -8 -23 -14 15 -54 28 -30
86 -110 134 -186 51 -80 147 -309 167 -396 4 -16 11 -28 17 -28 17 0 230 218
265 270 17 25 49 72 71 105 23 33 63 103 90 155 104 205 123 276 126 477 1 81
0 176 -2 210 -6 83 -33 216 -46 219 -5 1 -26 -7 -45 -19z"/>
<path d="M4066 12909 c-195 -21 -464 -160 -602 -311 -167 -184 -310 -531 -315
-766 -1 -57 3 -75 28 -118 52 -94 123 -175 336 -384 212 -208 229 -223 284
-250 27 -13 60 -30 76 -37 15 -8 91 -33 170 -55 142 -40 215 -49 289 -33 53
12 159 64 206 102 48 39 115 125 127 163 4 14 16 36 26 50 23 32 67 190 74
266 13 143 4 300 -25 444 -6 30 -14 69 -16 85 -23 138 -134 432 -223 589 -107
188 -178 242 -346 260 -11 1 -51 -1 -89 -5z m-4 -708 c32 -7 68 -18 80 -24 72
-40 128 -82 163 -124 51 -61 115 -148 115 -158 0 -4 15 -33 34 -64 42 -70 51
-103 62 -226 5 -47 0 -80 -21 -155 -15 -52 -36 -103 -46 -113 -11 -10 -19 -24
-19 -31 0 -20 -39 -51 -108 -85 -55 -28 -73 -32 -134 -30 -108 3 -218 34 -274
76 -17 12 -36 23 -42 23 -6 0 -21 14 -34 30 -12 17 -26 30 -31 30 -5 0 -20 11
-33 25 -13 14 -27 25 -32 25 -17 0 -130 129 -136 155 -4 14 -19 52 -35 84 -32
67 -48 193 -32 249 16 55 130 194 201 246 113 83 180 97 322 67z"/>
<path d="M3893 11782 c-39 -23 -69 -50 -82 -73 -11 -20 -19 -38 -16 -40 2 -3
-2 -27 -9 -54 -7 -28 -11 -57 -8 -65 12 -41 87 -160 101 -160 9 0 30 -8 46
-18 17 -10 53 -21 81 -25 45 -5 61 -1 115 25 111 53 145 98 134 179 l-7 49
-51 0 c-60 1 -112 24 -140 62 -18 24 -19 34 -10 84 10 54 9 56 -14 65 -43 16
-77 9 -140 -29z"/>
<path d="M5372 12727 c-23 -7 -58 -27 -78 -46 -38 -37 -95 -143 -133 -251 -13
-36 -27 -74 -32 -85 -9 -22 -29 -98 -34 -130 -5 -27 -24 -134 -30 -165 -27
-137 -18 -417 16 -483 6 -12 35 -53 64 -92 28 -38 58 -81 65 -94 7 -14 17 -30
22 -35 5 -6 36 -52 69 -103 37 -57 73 -100 95 -114 77 -47 180 -31 277 43 82
63 213 203 293 313 40 55 77 105 82 110 31 37 94 141 122 200 46 96 45 161 -5
305 -50 142 -83 212 -149 312 -78 118 -195 221 -293 259 -15 6 -41 17 -58 24
-89 41 -211 54 -293 32z m378 -572 c95 -63 166 -146 176 -204 3 -20 9 -49 13
-65 11 -46 -33 -219 -65 -257 -8 -8 -14 -19 -14 -22 0 -9 -43 -58 -90 -105
-156 -155 -283 -177 -394 -68 -45 43 -56 63 -76 126 -28 92 -27 175 1 280 55
207 180 342 324 353 28 2 52 4 54 5 3 1 35 -18 71 -43z"/>
<path d="M5495 11891 c-155 -39 -210 -199 -108 -312 76 -84 200 -85 278 -1 27
28 61 125 50 142 -3 6 -22 8 -43 4 -49 -7 -88 8 -106 43 -12 25 -12 34 1 71 8
24 13 45 11 47 -9 9 -57 12 -83 6z"/>
<path d="M4950 11093 c-125 -23 -210 -62 -210 -98 0 -46 71 -140 184 -242 143
-131 247 -117 376 48 50 63 101 143 106 166 13 51 -42 95 -150 118 -61 12
-254 18 -306 8z"/>
<path d="M4315 10808 c-48 -28 -75 -93 -65 -158 l5 -35 13 42 c12 40 28 61 38
50 3 -2 22 -53 43 -113 85 -239 123 -307 230 -415 92 -92 150 -126 266 -159
149 -42 287 -2 401 116 35 36 64 70 64 75 0 5 11 26 24 47 13 21 37 78 54 127
17 50 44 117 60 150 32 64 25 81 -20 51 -13 -8 -50 -19 -83 -25 -33 -5 -80
-16 -105 -24 -124 -41 -286 -24 -534 55 -111 34 -335 143 -343 166 -5 13 5 24
32 36 14 6 -16 26 -40 26 -11 -1 -29 -6 -40 -12z"/>
</g>
</svg>
